<svg width="231" height="67" viewBox="0 0 231 67" fill="none" xmlns="http://www.w3.org/2000/svg">
<path d="M15.4887 1.82158C15.9561 1.01199 17.1247 1.01199 17.5921 1.82158L32.0528 26.8683C32.5203 27.6779 31.936 28.6899 31.0011 28.6899H2.07968C1.14484 28.6899 0.560568 27.6779 1.02799 26.8683L15.4887 1.82158Z" fill="#3870FF"/>
<rect opacity="0.2" x="38.0578" width="28.6899" height="28.6899" rx="14.3449" fill="#3870FF"/>
<rect opacity="0.2" x="73.2247" y="0.5" width="27.6899" height="27.6899" rx="4.81294" stroke="#3870FF"/>
<path d="M2.32431 53.218C2.32431 50.6199 2.90448 48.2992 4.06483 46.256C5.2504 44.1875 6.85218 42.5857 8.87018 41.4506C10.9134 40.2903 13.1963 39.7101 15.7187 39.7101C18.6701 39.7101 21.2556 40.4668 23.4754 41.9803C25.6952 43.4938 27.2465 45.5875 28.1294 48.2613H22.0376C21.4322 47.0001 20.5745 46.0542 19.4646 45.4235C18.38 44.7929 17.1187 44.4776 15.6809 44.4776C14.1422 44.4776 12.7674 44.8434 11.5566 45.5749C10.3711 46.2812 9.43774 47.2902 8.75667 48.6019C8.10082 49.9136 7.77289 51.4523 7.77289 53.218C7.77289 54.9586 8.10082 56.4973 8.75667 57.8342C9.43774 59.1459 10.3711 60.1675 11.5566 60.899C12.7674 61.6053 14.1422 61.9585 15.6809 61.9585C17.1187 61.9585 18.38 61.6432 19.4646 61.0126C20.5745 60.3567 21.4322 59.3982 22.0376 58.1369H28.1294C27.2465 60.836 25.6952 62.9423 23.4754 64.4558C21.2808 65.944 18.6953 66.6882 15.7187 66.6882C13.1963 66.6882 10.9134 66.1206 8.87018 64.9855C6.85218 63.8251 5.2504 62.2233 4.06483 60.1801C2.90448 58.1369 2.32431 55.8162 2.32431 53.218ZM41.9619 66.8017C39.9439 66.8017 38.1277 66.3602 36.5134 65.4774C34.899 64.5693 33.6251 63.2954 32.6918 61.6558C31.7837 60.0162 31.3296 58.1243 31.3296 55.9802C31.3296 53.8361 31.7963 51.9442 32.7296 50.3046C33.6882 48.6649 34.9872 47.4037 36.6269 46.5208C38.2665 45.6127 40.0953 45.1587 42.1133 45.1587C44.1313 45.1587 45.9601 45.6127 47.5997 46.5208C49.2393 47.4037 50.5258 48.6649 51.4591 50.3046C52.4177 51.9442 52.8969 53.8361 52.8969 55.9802C52.8969 58.1243 52.4051 60.0162 51.4213 61.6558C50.4627 63.2954 49.151 64.5693 47.4862 65.4774C45.8466 66.3602 44.0052 66.8017 41.9619 66.8017ZM41.9619 62.1855C42.9205 62.1855 43.816 61.9585 44.6484 61.5044C45.506 61.0252 46.1871 60.3189 46.6916 59.3855C47.1961 58.4522 47.4484 57.3171 47.4484 55.9802C47.4484 53.9874 46.9186 52.4613 45.8592 51.4019C44.825 50.3172 43.5511 49.7748 42.0376 49.7748C40.5241 49.7748 39.2503 50.3172 38.216 51.4019C37.207 52.4613 36.7025 53.9874 36.7025 55.9802C36.7025 57.9729 37.1944 59.5117 38.1782 60.5963C39.1872 61.6558 40.4484 62.1855 41.9619 62.1855ZM68.3987 45.1965C70.896 45.1965 72.914 45.9911 74.4527 47.5803C75.9914 49.1442 76.7608 51.3388 76.7608 54.164V66.4611H71.4636V54.8829C71.4636 53.218 71.0474 51.9442 70.2149 51.0613C69.3825 50.1532 68.2474 49.6992 66.8096 49.6992C65.3465 49.6992 64.1862 50.1532 63.3285 51.0613C62.4961 51.9442 62.0799 53.218 62.0799 54.8829V66.4611H56.7827V45.4992H62.0799V48.11C62.7862 47.2019 63.6817 46.4956 64.7664 45.9911C65.8763 45.4614 67.087 45.1965 68.3987 45.1965ZM89.8197 66.8017C88.1044 66.8017 86.5657 66.499 85.2036 65.8936C83.8414 65.263 82.7568 64.4179 81.9496 63.3585C81.1676 62.299 80.7388 61.1261 80.6631 59.8396H85.9982C86.0991 60.6468 86.49 61.3152 87.1711 61.845C87.8774 62.3747 88.7477 62.6396 89.7819 62.6396C90.7909 62.6396 91.5729 62.4378 92.1278 62.0342C92.708 61.6306 92.9981 61.1135 92.9981 60.4828C92.9981 59.8018 92.6449 59.2973 91.9386 58.9693C91.2576 58.6162 90.1603 58.2378 88.6468 57.8342C87.0828 57.4558 85.7964 57.0648 84.7874 56.6613C83.8036 56.2577 82.9459 55.6396 82.2144 54.8072C81.5081 53.9748 81.155 52.8523 81.155 51.4397C81.155 50.2793 81.4829 49.2199 82.1387 48.2613C82.8198 47.3028 83.7784 46.5461 85.0144 45.9911C86.2756 45.4362 87.7513 45.1587 89.4414 45.1587C91.9386 45.1587 93.9314 45.7893 95.4197 47.0506C96.9079 48.2866 97.7277 49.964 97.8791 52.0829H92.8089C92.7332 51.2505 92.3801 50.5947 91.7494 50.1154C91.144 49.6109 90.3242 49.3586 89.29 49.3586C88.3315 49.3586 87.5873 49.5352 87.0576 49.8884C86.5531 50.2415 86.3009 50.7334 86.3009 51.364C86.3009 52.0703 86.654 52.6126 87.3603 52.991C88.0666 53.3442 89.1639 53.7099 90.6522 54.0883C92.1657 54.4667 93.4143 54.8577 94.3981 55.2613C95.3818 55.6649 96.2269 56.2955 96.9332 57.1531C97.6647 57.9856 98.0431 59.0955 98.0683 60.4828C98.0683 61.6936 97.7277 62.7783 97.0467 63.7368C96.3908 64.6954 95.4323 65.4521 94.171 66.0071C92.935 66.5368 91.4846 66.8017 89.8197 66.8017ZM108.584 49.8505V59.9909C108.584 60.6972 108.748 61.2144 109.076 61.5423C109.429 61.845 110.009 61.9963 110.817 61.9963H113.276V66.4611H109.946C105.481 66.4611 103.249 64.2918 103.249 59.9531V49.8505H100.752V45.4992H103.249V40.3155H108.584V45.4992H113.276V49.8505H108.584ZM122.383 48.7532C123.064 47.6433 123.947 46.7731 125.032 46.1425C126.142 45.5118 127.403 45.1965 128.816 45.1965V50.7586H127.416C125.751 50.7586 124.49 51.1496 123.632 51.9316C122.799 52.7135 122.383 54.0757 122.383 56.018V66.4611H117.086V45.4992H122.383V48.7532ZM152.173 45.4992V66.4611H146.837V63.8125C146.156 64.7206 145.261 65.4395 144.151 65.9692C143.066 66.4737 141.881 66.726 140.594 66.726C138.955 66.726 137.504 66.3855 136.243 65.7044C134.982 64.9981 133.985 63.9765 133.254 62.6396C132.548 61.2774 132.194 59.663 132.194 57.7964V45.4992H137.492V57.0396C137.492 58.7045 137.908 59.9909 138.74 60.899C139.573 61.7819 140.708 62.2233 142.146 62.2233C143.609 62.2233 144.756 61.7819 145.589 60.899C146.421 59.9909 146.837 58.7045 146.837 57.0396V45.4992H152.173ZM156.037 55.9802C156.037 53.8108 156.478 51.919 157.361 50.3046C158.244 48.6649 159.468 47.4037 161.031 46.5208C162.595 45.6127 164.386 45.1587 166.404 45.1587C169.003 45.1587 171.147 45.8145 172.837 47.1262C174.552 48.4127 175.7 50.2289 176.28 52.5748H170.567C170.264 51.6667 169.747 50.9604 169.015 50.4559C168.309 49.9262 167.426 49.6613 166.367 49.6613C164.853 49.6613 163.655 50.2163 162.772 51.3262C161.889 52.4108 161.448 53.9622 161.448 55.9802C161.448 57.9729 161.889 59.5243 162.772 60.6342C163.655 61.7188 164.853 62.2612 166.367 62.2612C168.511 62.2612 169.911 61.3026 170.567 59.3855H176.28C175.7 61.6558 174.552 63.4594 172.837 64.7963C171.121 66.1332 168.977 66.8017 166.404 66.8017C164.386 66.8017 162.595 66.3602 161.031 65.4774C159.468 64.5693 158.244 63.308 157.361 61.6936C156.478 60.054 156.037 58.1495 156.037 55.9802ZM186.328 49.8505V59.9909C186.328 60.6972 186.492 61.2144 186.82 61.5423C187.173 61.845 187.753 61.9963 188.561 61.9963H191.02V66.4611H187.69C183.225 66.4611 180.993 64.2918 180.993 59.9531V49.8505H178.496V45.4992H180.993V40.3155H186.328V45.4992H191.02V49.8505H186.328ZM204.138 66.8017C202.12 66.8017 200.304 66.3602 198.689 65.4774C197.075 64.5693 195.801 63.2954 194.868 61.6558C193.96 60.0162 193.506 58.1243 193.506 55.9802C193.506 53.8361 193.972 51.9442 194.906 50.3046C195.864 48.6649 197.163 47.4037 198.803 46.5208C200.443 45.6127 202.271 45.1587 204.289 45.1587C206.307 45.1587 208.136 45.6127 209.776 46.5208C211.415 47.4037 212.702 48.6649 213.635 50.3046C214.594 51.9442 215.073 53.8361 215.073 55.9802C215.073 58.1243 214.581 60.0162 213.597 61.6558C212.639 63.2954 211.327 64.5693 209.662 65.4774C208.023 66.3602 206.181 66.8017 204.138 66.8017ZM204.138 62.1855C205.097 62.1855 205.992 61.9585 206.824 61.5044C207.682 61.0252 208.363 60.3189 208.868 59.3855C209.372 58.4522 209.624 57.3171 209.624 55.9802C209.624 53.9874 209.095 52.4613 208.035 51.4019C207.001 50.3172 205.727 49.7748 204.214 49.7748C202.7 49.7748 201.426 50.3172 200.392 51.4019C199.383 52.4613 198.879 53.9874 198.879 55.9802C198.879 57.9729 199.371 59.5117 200.354 60.5963C201.363 61.6558 202.625 62.1855 204.138 62.1855ZM224.256 48.7532C224.937 47.6433 225.82 46.7731 226.905 46.1425C228.015 45.5118 229.276 45.1965 230.688 45.1965V50.7586H229.288C227.624 50.7586 226.362 51.1496 225.505 51.9316C224.672 52.7135 224.256 54.0757 224.256 56.018V66.4611H218.959V45.4992H224.256V48.7532Z" fill="#19171D"/>
</svg>
