<svg width="16" height="14" viewBox="0 0 16 14" fill="none" xmlns="http://www.w3.org/2000/svg">
<path d="M14.75 0.46582C14.9489 0.46582 15.1397 0.544838 15.2803 0.68549C15.421 0.826142 15.5 1.01691 15.5 1.21582V13.2158C15.5 13.4147 15.421 13.6055 15.2803 13.7462C15.1397 13.8868 14.9489 13.9658 14.75 13.9658H1.25C1.05109 13.9658 0.860322 13.8868 0.71967 13.7462C0.579018 13.6055 0.5 13.4147 0.5 13.2158V1.21582C0.5 1.01691 0.579018 0.826142 0.71967 0.68549C0.860322 0.544838 1.05109 0.46582 1.25 0.46582H14.75ZM14 1.96582H2V12.4658H14V1.96582ZM12.5 9.46582V10.9658H3.5V9.46582H12.5Z" fill="#3870FF"/>
</svg>
