<svg width="16" height="14" viewBox="0 0 16 14" fill="none" xmlns="http://www.w3.org/2000/svg">
<path d="M14.7501 0.46582C14.949 0.46582 15.1397 0.544838 15.2804 0.68549C15.421 0.826142 15.5001 1.01691 15.5001 1.21582V13.2158C15.5001 13.4147 15.421 13.6055 15.2804 13.7462C15.1397 13.8868 14.949 13.9658 14.7501 13.9658H1.25006C1.05115 13.9658 0.860383 13.8868 0.719731 13.7462C0.579079 13.6055 0.500061 13.4147 0.500061 13.2158V1.21582C0.500061 1.01691 0.579079 0.826142 0.719731 0.68549C0.860383 0.544838 1.05115 0.46582 1.25006 0.46582H14.7501ZM14.0001 1.96582H2.00006V12.4658H14.0001V1.96582ZM12.5001 3.46582V4.96582H3.50006V3.46582H12.5001Z" fill="#3870FF"/>
</svg>
