<svg width="150" height="177" viewBox="0 0 150 177" fill="none" xmlns="http://www.w3.org/2000/svg">
<rect x="10" y="10" width="40" height="40" rx="4" fill="#F2F4FA"/>
<rect x="10" y="55" width="40" height="40" rx="4" fill="#F2F4FA"/>
<rect x="55" y="10" width="40" height="40" rx="4" fill="#F2F4FA"/>
<rect x="55" y="55" width="40" height="40" rx="4" fill="#F2F4FA"/>
<rect x="100" y="10" width="40" height="40" rx="4" fill="#F2F4FA"/>
<rect x="0.5" y="0.5" width="149" height="149" rx="9.5" stroke="#19171D" stroke-opacity="0.1"/>
<path d="M19.3163 174L15.8959 169.436H14.8121V174H13.2758V163.818H14.8121V168.119H15.3142L19.1622 163.818H21.0365L16.9648 168.377L21.1906 174H19.3163ZM24.7167 174.169C24.2328 174.169 23.7953 174.08 23.4042 173.901C23.0131 173.718 22.7032 173.455 22.4745 173.11C22.2491 172.765 22.1365 172.343 22.1365 171.842C22.1365 171.411 22.2193 171.057 22.385 170.778C22.5508 170.5 22.7745 170.28 23.0562 170.117C23.3379 169.955 23.6528 169.832 24.0008 169.749C24.3488 169.666 24.7035 169.603 25.0647 169.56C25.5221 169.507 25.8933 169.464 26.1784 169.431C26.4634 169.395 26.6705 169.337 26.7998 169.257C26.9291 169.178 26.9937 169.048 26.9937 168.869V168.835C26.9937 168.4 26.8711 168.064 26.6258 167.825C26.3838 167.587 26.0226 167.467 25.542 167.467C25.0415 167.467 24.6471 167.578 24.3588 167.8C24.0737 168.019 23.8765 168.263 23.7671 168.531L22.3701 168.213C22.5358 167.749 22.7778 167.375 23.096 167.089C23.4175 166.801 23.787 166.592 24.2046 166.463C24.6222 166.33 25.0614 166.264 25.5221 166.264C25.827 166.264 26.1502 166.301 26.4916 166.374C26.8363 166.443 27.1578 166.572 27.4561 166.761C27.7577 166.95 28.0046 167.22 28.1968 167.572C28.3891 167.92 28.4852 168.372 28.4852 168.929V174H27.0335V172.956H26.9738C26.8777 173.148 26.7335 173.337 26.5413 173.523C26.349 173.708 26.1021 173.862 25.8005 173.985C25.4989 174.108 25.1376 174.169 24.7167 174.169ZM25.0399 172.976C25.4508 172.976 25.8022 172.895 26.0938 172.732C26.3888 172.57 26.6125 172.358 26.765 172.096C26.9208 171.831 26.9987 171.547 26.9987 171.246V170.261C26.9456 170.314 26.8429 170.364 26.6904 170.411C26.5413 170.454 26.3706 170.492 26.1784 170.525C25.9861 170.555 25.7989 170.583 25.6166 170.609C25.4343 170.633 25.2818 170.652 25.1592 170.669C24.8708 170.705 24.6073 170.767 24.3687 170.853C24.1334 170.939 23.9445 171.063 23.8019 171.226C23.6627 171.385 23.5931 171.597 23.5931 171.862C23.5931 172.23 23.729 172.509 24.0008 172.697C24.2726 172.883 24.6189 172.976 25.0399 172.976ZM30.4651 176.864V166.364H31.9168V167.602H32.0411C32.1273 167.442 32.2516 167.259 32.414 167.05C32.5764 166.841 32.8018 166.659 33.0901 166.503C33.3785 166.344 33.7596 166.264 34.2336 166.264C34.8501 166.264 35.4002 166.42 35.8841 166.732C36.368 167.043 36.7475 167.492 37.0226 168.079C37.301 168.665 37.4403 169.371 37.4403 170.197C37.4403 171.022 37.3027 171.73 37.0276 172.32C36.7525 172.906 36.3747 173.359 35.8941 173.677C35.4135 173.992 34.865 174.149 34.2485 174.149C33.7845 174.149 33.405 174.071 33.11 173.915C32.8183 173.76 32.5896 173.577 32.4239 173.369C32.2582 173.16 32.1306 172.974 32.0411 172.812H31.9516V176.864H30.4651ZM31.9218 170.182C31.9218 170.719 31.9997 171.189 32.1555 171.594C32.3112 171.998 32.5366 172.315 32.8316 172.543C33.1266 172.769 33.4878 172.881 33.9154 172.881C34.3595 172.881 34.7307 172.764 35.029 172.528C35.3273 172.29 35.5527 171.967 35.7052 171.559C35.8609 171.151 35.9388 170.692 35.9388 170.182C35.9388 169.678 35.8626 169.226 35.7101 168.825C35.561 168.424 35.3356 168.107 35.034 167.875C34.7357 167.643 34.3628 167.527 33.9154 167.527C33.4845 167.527 33.1199 167.638 32.8216 167.86C32.5267 168.082 32.3029 168.392 32.1505 168.79C31.998 169.187 31.9218 169.652 31.9218 170.182ZM38.186 167.646V166.364H44.6292V167.646H42.1384V174H40.6867V167.646H38.186ZM49.0626 174.154C48.3467 174.154 47.7219 173.99 47.1883 173.662C46.6547 173.334 46.2404 172.875 45.9454 172.285C45.6504 171.695 45.5029 171.005 45.5029 170.217C45.5029 169.424 45.6504 168.732 45.9454 168.138C46.2404 167.545 46.6547 167.085 47.1883 166.756C47.7219 166.428 48.3467 166.264 49.0626 166.264C49.7785 166.264 50.4033 166.428 50.9369 166.756C51.4705 167.085 51.8848 167.545 52.1798 168.138C52.4748 168.732 52.6222 169.424 52.6222 170.217C52.6222 171.005 52.4748 171.695 52.1798 172.285C51.8848 172.875 51.4705 173.334 50.9369 173.662C50.4033 173.99 49.7785 174.154 49.0626 174.154ZM49.0676 172.906C49.5316 172.906 49.916 172.784 50.221 172.538C50.5259 172.293 50.7513 171.967 50.8971 171.559C51.0463 171.151 51.1208 170.702 51.1208 170.212C51.1208 169.724 51.0463 169.277 50.8971 168.869C50.7513 168.458 50.5259 168.129 50.221 167.88C49.916 167.631 49.5316 167.507 49.0676 167.507C48.6002 167.507 48.2124 167.631 47.9042 167.88C47.5993 168.129 47.3722 168.458 47.2231 168.869C47.0773 169.277 47.0044 169.724 47.0044 170.212C47.0044 170.702 47.0773 171.151 47.2231 171.559C47.3722 171.967 47.5993 172.293 47.9042 172.538C48.2124 172.784 48.6002 172.906 49.0676 172.906ZM60.4115 166.364V174H58.9598V166.364H60.4115ZM59.7801 169.908V171.191C59.5514 171.284 59.3095 171.367 59.0542 171.44C58.799 171.509 58.5306 171.564 58.2488 171.604C57.9671 171.643 57.6738 171.663 57.3689 171.663C56.4243 171.663 55.6736 171.433 55.1167 170.972C54.5599 170.508 54.2815 169.799 54.2815 168.844V166.349H55.7282V168.844C55.7282 169.206 55.7945 169.499 55.9271 169.724C56.0597 169.95 56.2486 170.116 56.4939 170.222C56.7391 170.328 57.0308 170.381 57.3689 170.381C57.8163 170.381 58.229 170.339 58.6068 170.256C58.988 170.17 59.3791 170.054 59.7801 169.908ZM62.3889 174V166.364H63.8754V169.565H64.5914L67.1119 166.364H68.9514L65.9933 170.077L68.9862 174H67.1418L64.8399 170.947H63.8754V174H62.3889ZM71.5976 171.917L74.9633 166.364H76.5642V174H75.1075V168.442L71.7567 174H70.1409V166.364H71.5976V171.917ZM81.8403 167.646V166.364H88.2835V167.646H85.7927V174H84.341V167.646H81.8403ZM92.7169 174.154C92.001 174.154 91.3762 173.99 90.8426 173.662C90.309 173.334 89.8947 172.875 89.5997 172.285C89.3047 171.695 89.1572 171.005 89.1572 170.217C89.1572 169.424 89.3047 168.732 89.5997 168.138C89.8947 167.545 90.309 167.085 90.8426 166.756C91.3762 166.428 92.001 166.264 92.7169 166.264C93.4328 166.264 94.0576 166.428 94.5912 166.756C95.1248 167.085 95.5391 167.545 95.8341 168.138C96.1291 168.732 96.2765 169.424 96.2765 170.217C96.2765 171.005 96.1291 171.695 95.8341 172.285C95.5391 172.875 95.1248 173.334 94.5912 173.662C94.0576 173.99 93.4328 174.154 92.7169 174.154ZM92.7219 172.906C93.1859 172.906 93.5703 172.784 93.8753 172.538C94.1802 172.293 94.4056 171.967 94.5514 171.559C94.7006 171.151 94.7751 170.702 94.7751 170.212C94.7751 169.724 94.7006 169.277 94.5514 168.869C94.4056 168.458 94.1802 168.129 93.8753 167.88C93.5703 167.631 93.1859 167.507 92.7219 167.507C92.2545 167.507 91.8667 167.631 91.5585 167.88C91.2536 168.129 91.0265 168.458 90.8774 168.869C90.7316 169.277 90.6586 169.724 90.6586 170.212C90.6586 170.702 90.7316 171.151 90.8774 171.559C91.0265 171.967 91.2536 172.293 91.5585 172.538C91.8667 172.784 92.2545 172.906 92.7219 172.906ZM97.9358 174V166.364H101.103C101.964 166.364 102.647 166.548 103.151 166.915C103.655 167.28 103.907 167.776 103.907 168.402C103.907 168.849 103.764 169.204 103.479 169.466C103.194 169.728 102.816 169.903 102.346 169.993C102.687 170.033 103 170.135 103.285 170.301C103.57 170.464 103.799 170.682 103.971 170.957C104.147 171.232 104.235 171.561 104.235 171.942C104.235 172.346 104.13 172.704 103.922 173.016C103.713 173.324 103.41 173.566 103.012 173.741C102.617 173.914 102.142 174 101.585 174H97.9358ZM99.3328 172.757H101.585C101.953 172.757 102.241 172.669 102.45 172.494C102.659 172.318 102.763 172.079 102.763 171.778C102.763 171.423 102.659 171.145 102.45 170.942C102.241 170.737 101.953 170.634 101.585 170.634H99.3328V172.757ZM99.3328 169.545H101.118C101.396 169.545 101.635 169.506 101.834 169.426C102.036 169.347 102.19 169.234 102.296 169.088C102.405 168.939 102.46 168.763 102.46 168.561C102.46 168.266 102.339 168.036 102.097 167.87C101.855 167.704 101.524 167.621 101.103 167.621H99.3328V169.545ZM108.088 174.169C107.604 174.169 107.166 174.08 106.775 173.901C106.384 173.718 106.074 173.455 105.846 173.11C105.62 172.765 105.508 172.343 105.508 171.842C105.508 171.411 105.59 171.057 105.756 170.778C105.922 170.5 106.146 170.28 106.427 170.117C106.709 169.955 107.024 169.832 107.372 169.749C107.72 169.666 108.075 169.603 108.436 169.56C108.893 169.507 109.264 169.464 109.549 169.431C109.834 169.395 110.042 169.337 110.171 169.257C110.3 169.178 110.365 169.048 110.365 168.869V168.835C110.365 168.4 110.242 168.064 109.997 167.825C109.755 167.587 109.394 167.467 108.913 167.467C108.413 167.467 108.018 167.578 107.73 167.8C107.445 168.019 107.248 168.263 107.138 168.531L105.741 168.213C105.907 167.749 106.149 167.375 106.467 167.089C106.789 166.801 107.158 166.592 107.576 166.463C107.993 166.33 108.432 166.264 108.893 166.264C109.198 166.264 109.521 166.301 109.863 166.374C110.207 166.443 110.529 166.572 110.827 166.761C111.129 166.95 111.376 167.22 111.568 167.572C111.76 167.92 111.856 168.372 111.856 168.929V174H110.405V172.956H110.345C110.249 173.148 110.105 173.337 109.912 173.523C109.72 173.708 109.473 173.862 109.172 173.985C108.87 174.108 108.509 174.169 108.088 174.169ZM108.411 172.976C108.822 172.976 109.173 172.895 109.465 172.732C109.76 172.57 109.984 172.358 110.136 172.096C110.292 171.831 110.37 171.547 110.37 171.246V170.261C110.317 170.314 110.214 170.364 110.062 170.411C109.912 170.454 109.742 170.492 109.549 170.525C109.357 170.555 109.17 170.583 108.988 170.609C108.805 170.633 108.653 170.652 108.53 170.669C108.242 170.705 107.978 170.767 107.74 170.853C107.504 170.939 107.316 171.063 107.173 171.226C107.034 171.385 106.964 171.597 106.964 171.862C106.964 172.23 107.1 172.509 107.372 172.697C107.644 172.883 107.99 172.976 108.411 172.976ZM113.836 176.864V166.364H115.288V167.602H115.412C115.498 167.442 115.623 167.259 115.785 167.05C115.947 166.841 116.173 166.659 116.461 166.503C116.75 166.344 117.131 166.264 117.605 166.264C118.221 166.264 118.771 166.42 119.255 166.732C119.739 167.043 120.119 167.492 120.394 168.079C120.672 168.665 120.811 169.371 120.811 170.197C120.811 171.022 120.674 171.73 120.399 172.32C120.124 172.906 119.746 173.359 119.265 173.677C118.785 173.992 118.236 174.149 117.62 174.149C117.156 174.149 116.776 174.071 116.481 173.915C116.189 173.76 115.961 173.577 115.795 173.369C115.629 173.16 115.502 172.974 115.412 172.812H115.323V176.864H113.836ZM115.293 170.182C115.293 170.719 115.371 171.189 115.527 171.594C115.682 171.998 115.908 172.315 116.203 172.543C116.498 172.769 116.859 172.881 117.286 172.881C117.731 172.881 118.102 172.764 118.4 172.528C118.698 172.29 118.924 171.967 119.076 171.559C119.232 171.151 119.31 170.692 119.31 170.182C119.31 169.678 119.234 169.226 119.081 168.825C118.932 168.424 118.707 168.107 118.405 167.875C118.107 167.643 117.734 167.527 117.286 167.527C116.856 167.527 116.491 167.638 116.193 167.86C115.898 168.082 115.674 168.392 115.522 168.79C115.369 169.187 115.293 169.652 115.293 170.182ZM125.693 174.154C124.978 174.154 124.353 173.99 123.819 173.662C123.286 173.334 122.871 172.875 122.576 172.285C122.281 171.695 122.134 171.005 122.134 170.217C122.134 169.424 122.281 168.732 122.576 168.138C122.871 167.545 123.286 167.085 123.819 166.756C124.353 166.428 124.978 166.264 125.693 166.264C126.409 166.264 127.034 166.428 127.568 166.756C128.101 167.085 128.516 167.545 128.811 168.138C129.106 168.732 129.253 169.424 129.253 170.217C129.253 171.005 129.106 171.695 128.811 172.285C128.516 172.875 128.101 173.334 127.568 173.662C127.034 173.99 126.409 174.154 125.693 174.154ZM125.698 172.906C126.162 172.906 126.547 172.784 126.852 172.538C127.157 172.293 127.382 171.967 127.528 171.559C127.677 171.151 127.752 170.702 127.752 170.212C127.752 169.724 127.677 169.277 127.528 168.869C127.382 168.458 127.157 168.129 126.852 167.88C126.547 167.631 126.162 167.507 125.698 167.507C125.231 167.507 124.843 167.631 124.535 167.88C124.23 168.129 124.003 168.458 123.854 168.869C123.708 169.277 123.635 169.724 123.635 170.212C123.635 170.702 123.708 171.151 123.854 171.559C124.003 171.967 124.23 172.293 124.535 172.538C124.843 172.784 125.231 172.906 125.698 172.906ZM130.912 174V166.364H134.079C134.941 166.364 135.624 166.548 136.128 166.915C136.631 167.28 136.883 167.776 136.883 168.402C136.883 168.849 136.741 169.204 136.456 169.466C136.171 169.728 135.793 169.903 135.322 169.993C135.664 170.033 135.977 170.135 136.262 170.301C136.547 170.464 136.776 170.682 136.948 170.957C137.124 171.232 137.211 171.561 137.211 171.942C137.211 172.346 137.107 172.704 136.898 173.016C136.689 173.324 136.386 173.566 135.988 173.741C135.594 173.914 135.118 174 134.562 174H130.912ZM132.309 172.757H134.562C134.929 172.757 135.218 172.669 135.427 172.494C135.635 172.318 135.74 172.079 135.74 171.778C135.74 171.423 135.635 171.145 135.427 170.942C135.218 170.737 134.929 170.634 134.562 170.634H132.309V172.757ZM132.309 169.545H134.094C134.373 169.545 134.611 169.506 134.81 169.426C135.012 169.347 135.166 169.234 135.272 169.088C135.382 168.939 135.437 168.763 135.437 168.561C135.437 168.266 135.316 168.036 135.074 167.87C134.832 167.704 134.5 167.621 134.079 167.621H132.309V169.545Z" fill="#19171D"/>
</svg>
