<svg width="19" height="19" viewBox="0 0 19 19" fill="none" xmlns="http://www.w3.org/2000/svg">
<g clip-path="url(#clip0_55_144)">
<path d="M3.25 5.31062L0.817749 2.87912L1.879 1.81787L4.3105 4.25012H15.742C15.8589 4.25011 15.9742 4.27743 16.0786 4.3299C16.1831 4.38236 16.2739 4.45852 16.3437 4.55229C16.4135 4.64607 16.4604 4.75486 16.4807 4.86999C16.501 4.98511 16.494 5.10339 16.4605 5.21537L14.6605 11.2154C14.6142 11.3699 14.5193 11.5054 14.3898 11.6018C14.2604 11.6981 14.1033 11.7501 13.942 11.7501H4.75V13.2501H13V14.7501H4C3.80109 14.7501 3.61032 14.6711 3.46967 14.5305C3.32902 14.3898 3.25 14.199 3.25 14.0001V5.31062ZM4.75 5.75012V10.2501H13.384L14.734 5.75012H4.75ZM4.375 17.7501C4.07663 17.7501 3.79048 17.6316 3.5795 17.4206C3.36853 17.2096 3.25 16.9235 3.25 16.6251C3.25 16.3268 3.36853 16.0406 3.5795 15.8296C3.79048 15.6186 4.07663 15.5001 4.375 15.5001C4.67337 15.5001 4.95952 15.6186 5.17049 15.8296C5.38147 16.0406 5.5 16.3268 5.5 16.6251C5.5 16.9235 5.38147 17.2096 5.17049 17.4206C4.95952 17.6316 4.67337 17.7501 4.375 17.7501ZM13.375 17.7501C13.0766 17.7501 12.7905 17.6316 12.5795 17.4206C12.3685 17.2096 12.25 16.9235 12.25 16.6251C12.25 16.3268 12.3685 16.0406 12.5795 15.8296C12.7905 15.6186 13.0766 15.5001 13.375 15.5001C13.6734 15.5001 13.9595 15.6186 14.1705 15.8296C14.3815 16.0406 14.5 16.3268 14.5 16.6251C14.5 16.9235 14.3815 17.2096 14.1705 17.4206C13.9595 17.6316 13.6734 17.7501 13.375 17.7501Z" fill="#4AC77C"/>
</g>
<defs>
<clipPath id="clip0_55_144">
<rect width="18" height="18" fill="white" transform="translate(0.25 0.5)"/>
</clipPath>
</defs>
</svg>
