<svg width="150" height="177" viewBox="0 0 150 177" fill="none" xmlns="http://www.w3.org/2000/svg">
<rect x="10.5" y="10.5" width="129" height="39" rx="3.5" stroke="#E2E8F0"/>
<rect x="10.5" y="55.5" width="129" height="39" rx="3.5" stroke="#E2E8F0"/>
<rect x="10.5" y="100.5" width="64" height="39" rx="3.5" stroke="#E2E8F0"/>
<rect x="0.5" y="0.5" width="149" height="149" rx="9.5" stroke="#19171D" stroke-opacity="0.1" stroke-dasharray="2 2"/>
<path d="M38.9933 167.129H37.4421C37.3825 166.798 37.2714 166.506 37.109 166.254C36.9466 166.002 36.7478 165.789 36.5124 165.613C36.2771 165.437 36.0136 165.305 35.7219 165.215C35.4336 165.126 35.127 165.081 34.8022 165.081C34.2156 165.081 33.6902 165.228 33.2262 165.523C32.7655 165.818 32.4009 166.251 32.1325 166.821C31.8673 167.391 31.7347 168.087 31.7347 168.909C31.7347 169.738 31.8673 170.437 32.1325 171.007C32.4009 171.577 32.7672 172.008 33.2312 172.3C33.6952 172.591 34.2172 172.737 34.7972 172.737C35.1187 172.737 35.4237 172.694 35.712 172.608C36.0037 172.518 36.2672 172.388 36.5025 172.215C36.7378 172.043 36.9367 171.832 37.0991 171.584C37.2648 171.332 37.3791 171.044 37.4421 170.719L38.9933 170.724C38.9104 171.224 38.7496 171.685 38.511 172.106C38.2757 172.523 37.9724 172.885 37.6012 173.19C37.2333 173.491 36.8124 173.725 36.3384 173.891C35.8645 174.056 35.3474 174.139 34.7873 174.139C33.9057 174.139 33.1201 173.93 32.4308 173.513C31.7414 173.092 31.1978 172.49 30.8001 171.708C30.4057 170.926 30.2085 169.993 30.2085 168.909C30.2085 167.822 30.4073 166.889 30.805 166.11C31.2028 165.328 31.7463 164.728 32.4357 164.31C33.1251 163.889 33.909 163.679 34.7873 163.679C35.3275 163.679 35.8313 163.757 36.2987 163.913C36.7693 164.065 37.1919 164.29 37.5664 164.589C37.9409 164.884 38.2508 165.245 38.4961 165.673C38.7414 166.097 38.9071 166.582 38.9933 167.129ZM40.7122 174V166.364H43.8791C44.7408 166.364 45.4236 166.548 45.9274 166.915C46.4312 167.28 46.6831 167.776 46.6831 168.402C46.6831 168.849 46.5405 169.204 46.2555 169.466C45.9705 169.728 45.5926 169.903 45.122 169.993C45.4634 170.033 45.7766 170.135 46.0616 170.301C46.3467 170.464 46.5753 170.682 46.7477 170.957C46.9234 171.232 47.0112 171.561 47.0112 171.942C47.0112 172.346 46.9068 172.704 46.698 173.016C46.4892 173.324 46.1859 173.566 45.7882 173.741C45.3938 173.914 44.9181 174 44.3613 174H40.7122ZM42.1092 172.757H44.3613C44.7292 172.757 45.0176 172.669 45.2264 172.494C45.4352 172.318 45.5396 172.079 45.5396 171.778C45.5396 171.423 45.4352 171.145 45.2264 170.942C45.0176 170.737 44.7292 170.634 44.3613 170.634H42.1092V172.757ZM42.1092 169.545H43.894C44.1724 169.545 44.411 169.506 44.6099 169.426C44.8121 169.347 44.9662 169.234 45.0723 169.088C45.1816 168.939 45.2363 168.763 45.2363 168.561C45.2363 168.266 45.1154 168.036 44.8734 167.87C44.6315 167.704 44.3 167.621 43.8791 167.621H42.1092V169.545ZM51.8585 174.154C51.1426 174.154 50.5178 173.99 49.9842 173.662C49.4506 173.334 49.0363 172.875 48.7413 172.285C48.4463 171.695 48.2988 171.005 48.2988 170.217C48.2988 169.424 48.4463 168.732 48.7413 168.138C49.0363 167.545 49.4506 167.085 49.9842 166.756C50.5178 166.428 51.1426 166.264 51.8585 166.264C52.5744 166.264 53.1992 166.428 53.7328 166.756C54.2664 167.085 54.6807 167.545 54.9757 168.138C55.2707 168.732 55.4181 169.424 55.4181 170.217C55.4181 171.005 55.2707 171.695 54.9757 172.285C54.6807 172.875 54.2664 173.334 53.7328 173.662C53.1992 173.99 52.5744 174.154 51.8585 174.154ZM51.8635 172.906C52.3275 172.906 52.7119 172.784 53.0169 172.538C53.3218 172.293 53.5472 171.967 53.693 171.559C53.8422 171.151 53.9167 170.702 53.9167 170.212C53.9167 169.724 53.8422 169.277 53.693 168.869C53.5472 168.458 53.3218 168.129 53.0169 167.88C52.7119 167.631 52.3275 167.507 51.8635 167.507C51.3961 167.507 51.0083 167.631 50.7001 167.88C50.3952 168.129 50.1681 168.458 50.019 168.869C49.8732 169.277 49.8002 169.724 49.8002 170.212C49.8002 170.702 49.8732 171.151 50.019 171.559C50.1681 171.967 50.3952 172.293 50.7001 172.538C51.0083 172.784 51.3961 172.906 51.8635 172.906ZM58.5341 171.917L61.8999 166.364H63.5007V174H62.044V168.442L58.6932 174H57.0774V166.364H58.5341V171.917ZM61.2635 163.778H62.4865C62.4865 164.339 62.2876 164.794 61.8899 165.146C61.4955 165.494 60.9619 165.668 60.2891 165.668C59.6196 165.668 59.0876 165.494 58.6932 165.146C58.2988 164.794 58.1016 164.339 58.1016 163.778H59.3196C59.3196 164.027 59.3925 164.247 59.5384 164.44C59.6842 164.629 59.9344 164.723 60.2891 164.723C60.6371 164.723 60.8857 164.629 61.0348 164.44C61.1873 164.251 61.2635 164.03 61.2635 163.778ZM69.2044 174V166.364H72.3713C73.233 166.364 73.9158 166.548 74.4196 166.915C74.9234 167.28 75.1752 167.776 75.1752 168.402C75.1752 168.849 75.0327 169.204 74.7477 169.466C74.4627 169.728 74.0848 169.903 73.6142 169.993C73.9556 170.033 74.2688 170.135 74.5538 170.301C74.8388 170.464 75.0675 170.682 75.2399 170.957C75.4155 171.232 75.5034 171.561 75.5034 171.942C75.5034 172.346 75.399 172.704 75.1902 173.016C74.9814 173.324 74.6781 173.566 74.2804 173.741C73.8859 173.914 73.4103 174 72.8535 174H69.2044ZM70.6014 172.757H72.8535C73.2214 172.757 73.5098 172.669 73.7186 172.494C73.9274 172.318 74.0318 172.079 74.0318 171.778C74.0318 171.423 73.9274 171.145 73.7186 170.942C73.5098 170.737 73.2214 170.634 72.8535 170.634H70.6014V172.757ZM70.6014 169.545H72.3862C72.6646 169.545 72.9032 169.506 73.1021 169.426C73.3043 169.347 73.4584 169.234 73.5645 169.088C73.6738 168.939 73.7285 168.763 73.7285 168.561C73.7285 168.266 73.6075 168.036 73.3656 167.87C73.1236 167.704 72.7922 167.621 72.3713 167.621H70.6014V169.545ZM78.5907 171.917L81.9565 166.364H83.5574V174H82.1007V168.442L78.7498 174H77.1341V166.364H78.5907V171.917ZM84.8102 176.202V172.712H85.4316C85.5907 172.567 85.725 172.393 85.8343 172.19C85.947 171.988 86.0415 171.748 86.1177 171.469C86.1973 171.191 86.2636 170.866 86.3166 170.495C86.3696 170.121 86.416 169.693 86.4558 169.212L86.6944 166.364H91.8848V172.712H93.0581V176.202H91.6064V174H86.2818V176.202H84.8102ZM87.0225 172.712H90.4331V167.636H88.0268L87.8677 169.212C87.7915 170.014 87.6954 170.71 87.5794 171.3C87.4634 171.887 87.2778 172.358 87.0225 172.712ZM94.0238 174L96.9819 170.092L94.0586 166.364H95.7887L98.1502 169.536H98.6822V166.364H100.169V169.536H100.686L103.047 166.364H104.777L101.869 170.092L104.812 174H103.047L100.666 170.818H100.169V174H98.6822V170.818H98.185L95.7887 174H94.0238ZM109.314 174.154C108.562 174.154 107.914 173.993 107.37 173.672C106.83 173.347 106.412 172.891 106.117 172.305C105.826 171.715 105.68 171.024 105.68 170.232C105.68 169.449 105.826 168.76 106.117 168.163C106.412 167.567 106.823 167.101 107.35 166.766C107.88 166.432 108.5 166.264 109.21 166.264C109.64 166.264 110.058 166.335 110.462 166.478C110.867 166.621 111.23 166.844 111.551 167.149C111.873 167.454 112.126 167.85 112.312 168.337C112.497 168.821 112.59 169.41 112.59 170.102V170.629H106.52V169.516H111.134C111.134 169.125 111.054 168.778 110.895 168.477C110.736 168.172 110.512 167.931 110.224 167.756C109.939 167.58 109.604 167.492 109.219 167.492C108.802 167.492 108.437 167.595 108.126 167.8C107.817 168.003 107.579 168.268 107.41 168.596C107.244 168.921 107.161 169.274 107.161 169.655V170.525C107.161 171.035 107.251 171.469 107.43 171.827C107.612 172.185 107.866 172.459 108.19 172.648C108.515 172.833 108.895 172.926 109.329 172.926C109.611 172.926 109.867 172.886 110.099 172.807C110.331 172.724 110.532 172.601 110.701 172.439C110.87 172.277 110.999 172.076 111.089 171.837L112.496 172.091C112.383 172.505 112.181 172.868 111.889 173.18C111.601 173.488 111.238 173.728 110.8 173.901C110.366 174.07 109.871 174.154 109.314 174.154ZM113.566 167.646V166.364H120.009V167.646H117.518V174H116.067V167.646H113.566Z" fill="#19171D"/>
</svg>
