<svg width="150" height="177" viewBox="0 0 150 177" fill="none" xmlns="http://www.w3.org/2000/svg">
<rect x="10" y="10" width="62.5" height="40" rx="4" fill="#F2F4FA"/>
<rect x="10" y="55" width="62.5" height="40" rx="4" fill="#F2F4FA"/>
<rect x="77" y="55" width="62.5" height="40" rx="4" fill="#F2F4FA"/>
<rect x="77" y="10" width="62.5" height="41.6667" rx="4" fill="#F2F4FA"/>
<rect x="0.5" y="0.5" width="149" height="149" rx="9.5" stroke="#19171D" stroke-opacity="0.1"/>
<path d="M32.7272 164.991H34.5617C35.3373 164.991 36.025 165.162 36.6249 165.504C37.2281 165.842 37.7004 166.317 38.0418 166.93C38.3865 167.54 38.5589 168.25 38.5589 169.058C38.5589 169.86 38.3865 170.565 38.0418 171.171C37.7004 171.778 37.2281 172.252 36.6249 172.593C36.025 172.931 35.3373 173.1 34.5617 173.1H32.7272C31.9516 173.1 31.2622 172.933 30.659 172.598C30.0558 172.26 29.5818 171.789 29.2371 171.186C28.8957 170.583 28.7251 169.879 28.7251 169.073C28.7251 168.261 28.8974 167.549 29.2421 166.935C29.5868 166.322 30.0591 165.845 30.659 165.504C31.2622 165.162 31.9516 164.991 32.7272 164.991ZM32.7272 166.319C32.1969 166.319 31.7445 166.43 31.3699 166.652C30.9954 166.871 30.7087 167.186 30.5099 167.597C30.311 168.008 30.2116 168.5 30.2116 169.073C30.2116 169.633 30.311 170.116 30.5099 170.52C30.712 170.921 31.0004 171.231 31.3749 171.45C31.7494 171.665 32.2002 171.773 32.7272 171.773H34.5667C35.0937 171.773 35.5428 171.665 35.914 171.45C36.2885 171.231 36.5735 170.919 36.7691 170.515C36.968 170.107 37.0674 169.622 37.0674 169.058C37.0674 168.491 36.968 168.004 36.7691 167.597C36.5735 167.186 36.2885 166.871 35.914 166.652C35.5428 166.43 35.0937 166.319 34.5667 166.319H32.7272ZM34.4026 163.639V174.418H32.8962V163.639H34.4026ZM43.5665 174.154C42.8506 174.154 42.2258 173.99 41.6922 173.662C41.1586 173.334 40.7443 172.875 40.4493 172.285C40.1543 171.695 40.0068 171.005 40.0068 170.217C40.0068 169.424 40.1543 168.732 40.4493 168.138C40.7443 167.545 41.1586 167.085 41.6922 166.756C42.2258 166.428 42.8506 166.264 43.5665 166.264C44.2824 166.264 44.9072 166.428 45.4408 166.756C45.9744 167.085 46.3887 167.545 46.6837 168.138C46.9787 168.732 47.1262 169.424 47.1262 170.217C47.1262 171.005 46.9787 171.695 46.6837 172.285C46.3887 172.875 45.9744 173.334 45.4408 173.662C44.9072 173.99 44.2824 174.154 43.5665 174.154ZM43.5715 172.906C44.0355 172.906 44.42 172.784 44.7249 172.538C45.0298 172.293 45.2552 171.967 45.401 171.559C45.5502 171.151 45.6247 170.702 45.6247 170.212C45.6247 169.724 45.5502 169.277 45.401 168.869C45.2552 168.458 45.0298 168.129 44.7249 167.88C44.42 167.631 44.0355 167.507 43.5715 167.507C43.1041 167.507 42.7164 167.631 42.4081 167.88C42.1032 168.129 41.8762 168.458 41.727 168.869C41.5812 169.277 41.5083 169.724 41.5083 170.212C41.5083 170.702 41.5812 171.151 41.727 171.559C41.8762 171.967 42.1032 172.293 42.4081 172.538C42.7164 172.784 43.1041 172.906 43.5715 172.906ZM47.8657 167.646V166.364H54.3089V167.646H51.8181V174H50.3664V167.646H47.8657ZM58.7423 174.154C58.0264 174.154 57.4016 173.99 56.868 173.662C56.3344 173.334 55.9201 172.875 55.6251 172.285C55.3301 171.695 55.1826 171.005 55.1826 170.217C55.1826 169.424 55.3301 168.732 55.6251 168.138C55.9201 167.545 56.3344 167.085 56.868 166.756C57.4016 166.428 58.0264 166.264 58.7423 166.264C59.4582 166.264 60.0829 166.428 60.6166 166.756C61.1502 167.085 61.5645 167.545 61.8595 168.138C62.1544 168.732 62.3019 169.424 62.3019 170.217C62.3019 171.005 62.1544 171.695 61.8595 172.285C61.5645 172.875 61.1502 173.334 60.6166 173.662C60.0829 173.99 59.4582 174.154 58.7423 174.154ZM58.7472 172.906C59.2113 172.906 59.5957 172.784 59.9007 172.538C60.2056 172.293 60.431 171.967 60.5768 171.559C60.7259 171.151 60.8005 170.702 60.8005 170.212C60.8005 169.724 60.7259 169.277 60.5768 168.869C60.431 168.458 60.2056 168.129 59.9007 167.88C59.5957 167.631 59.2113 167.507 58.7472 167.507C58.2799 167.507 57.8921 167.631 57.5839 167.88C57.279 168.129 57.0519 168.458 56.9028 168.869C56.757 169.277 56.684 169.724 56.684 170.212C56.684 170.702 56.757 171.151 56.9028 171.559C57.0519 171.967 57.279 172.293 57.5839 172.538C57.8921 172.784 58.2799 172.906 58.7472 172.906ZM72.5484 166.364V167.646H69.1329V174H67.6663V166.364H72.5484ZM75.9862 174.169C75.5023 174.169 75.0648 174.08 74.6737 173.901C74.2826 173.718 73.9727 173.455 73.7441 173.11C73.5187 172.765 73.406 172.343 73.406 171.842C73.406 171.411 73.4888 171.057 73.6546 170.778C73.8203 170.5 74.044 170.28 74.3257 170.117C74.6075 169.955 74.9223 169.832 75.2703 169.749C75.6183 169.666 75.973 169.603 76.3343 169.56C76.7916 169.507 77.1628 169.464 77.4479 169.431C77.7329 169.395 77.9401 169.337 78.0693 169.257C78.1986 169.178 78.2632 169.048 78.2632 168.869V168.835C78.2632 168.4 78.1406 168.064 77.8953 167.825C77.6534 167.587 77.2921 167.467 76.8115 167.467C76.311 167.467 75.9166 167.578 75.6283 167.8C75.3432 168.019 75.146 168.263 75.0367 168.531L73.6396 168.213C73.8054 167.749 74.0473 167.375 74.3655 167.089C74.687 166.801 75.0566 166.592 75.4742 166.463C75.8918 166.33 76.3309 166.264 76.7916 166.264C77.0966 166.264 77.4197 166.301 77.7611 166.374C78.1058 166.443 78.4273 166.572 78.7256 166.761C79.0272 166.95 79.2741 167.22 79.4664 167.572C79.6586 167.92 79.7547 168.372 79.7547 168.929V174H78.303V172.956H78.2433C78.1472 173.148 78.003 173.337 77.8108 173.523C77.6186 173.708 77.3717 173.862 77.07 173.985C76.7684 174.108 76.4072 174.169 75.9862 174.169ZM76.3094 172.976C76.7204 172.976 77.0717 172.895 77.3634 172.732C77.6584 172.57 77.8821 172.358 78.0345 172.096C78.1903 171.831 78.2682 171.547 78.2682 171.246V170.261C78.2152 170.314 78.1124 170.364 77.96 170.411C77.8108 170.454 77.6401 170.492 77.4479 170.525C77.2557 170.555 77.0684 170.583 76.8861 170.609C76.7038 170.633 76.5513 170.652 76.4287 170.669C76.1404 170.705 75.8769 170.767 75.6382 170.853C75.4029 170.939 75.214 171.063 75.0715 171.226C74.9323 171.385 74.8627 171.597 74.8627 171.862C74.8627 172.23 74.9985 172.509 75.2703 172.697C75.5421 172.883 75.8885 172.976 76.3094 172.976ZM81.1331 174L81.1281 172.712H81.4015C81.6137 172.712 81.791 172.668 81.9335 172.578C82.0793 172.485 82.1987 172.33 82.2915 172.111C82.3843 171.892 82.4555 171.59 82.5052 171.206C82.555 170.818 82.5914 170.331 82.6146 169.744L82.7488 166.364H88.0784V174H86.6217V167.646H84.126L84.0067 170.241C83.9768 170.871 83.9122 171.421 83.8128 171.892C83.7166 172.363 83.5758 172.755 83.3902 173.07C83.2046 173.382 82.9659 173.616 82.6743 173.771C82.3826 173.924 82.028 174 81.6104 174H81.1331ZM93.352 174.154C92.5996 174.154 91.9517 173.993 91.4081 173.672C90.8679 173.347 90.4503 172.891 90.1553 172.305C89.8636 171.715 89.7178 171.024 89.7178 170.232C89.7178 169.449 89.8636 168.76 90.1553 168.163C90.4503 167.567 90.8612 167.101 91.3882 166.766C91.9185 166.432 92.5383 166.264 93.2476 166.264C93.6785 166.264 94.0961 166.335 94.5004 166.478C94.9048 166.621 95.2677 166.844 95.5892 167.149C95.9107 167.454 96.1643 167.85 96.3499 168.337C96.5355 168.821 96.6283 169.41 96.6283 170.102V170.629H90.558V169.516H95.1716C95.1716 169.125 95.0921 168.778 94.933 168.477C94.7739 168.172 94.5502 167.931 94.2618 167.756C93.9768 167.58 93.642 167.492 93.2575 167.492C92.8399 167.492 92.4753 167.595 92.1638 167.8C91.8556 168.003 91.6169 168.268 91.4479 168.596C91.2822 168.921 91.1993 169.274 91.1993 169.655V170.525C91.1993 171.035 91.2888 171.469 91.4678 171.827C91.6501 172.185 91.9036 172.459 92.2284 172.648C92.5532 172.833 92.9327 172.926 93.3669 172.926C93.6486 172.926 93.9055 172.886 94.1375 172.807C94.3695 172.724 94.57 172.601 94.7391 172.439C94.9081 172.277 95.0374 172.076 95.1269 171.837L96.5338 172.091C96.4211 172.505 96.219 172.868 95.9273 173.18C95.6389 173.488 95.276 173.728 94.8385 173.901C94.4043 174.07 93.9088 174.154 93.352 174.154ZM98.2776 176.864V166.364H99.7293V167.602H99.8536C99.9398 167.442 100.064 167.259 100.226 167.05C100.389 166.841 100.614 166.659 100.903 166.503C101.191 166.344 101.572 166.264 102.046 166.264C102.663 166.264 103.213 166.42 103.697 166.732C104.181 167.043 104.56 167.492 104.835 168.079C105.114 168.665 105.253 169.371 105.253 170.197C105.253 171.022 105.115 171.73 104.84 172.32C104.565 172.906 104.187 173.359 103.707 173.677C103.226 173.992 102.677 174.149 102.061 174.149C101.597 174.149 101.217 174.071 100.922 173.915C100.631 173.76 100.402 173.577 100.236 173.369C100.071 173.16 99.9431 172.974 99.8536 172.812H99.7641V176.864H98.2776ZM99.7343 170.182C99.7343 170.719 99.8122 171.189 99.968 171.594C100.124 171.998 100.349 172.315 100.644 172.543C100.939 172.769 101.3 172.881 101.728 172.881C102.172 172.881 102.543 172.764 102.842 172.528C103.14 172.29 103.365 171.967 103.518 171.559C103.673 171.151 103.751 170.692 103.751 170.182C103.751 169.678 103.675 169.226 103.523 168.825C103.373 168.424 103.148 168.107 102.847 167.875C102.548 167.643 102.175 167.527 101.728 167.527C101.297 167.527 100.932 167.638 100.634 167.86C100.339 168.082 100.115 168.392 99.963 168.79C99.8105 169.187 99.7343 169.652 99.7343 170.182ZM110.209 174.154C109.457 174.154 108.809 173.993 108.266 173.672C107.725 173.347 107.308 172.891 107.013 172.305C106.721 171.715 106.575 171.024 106.575 170.232C106.575 169.449 106.721 168.76 107.013 168.163C107.308 167.567 107.719 167.101 108.246 166.766C108.776 166.432 109.396 166.264 110.105 166.264C110.536 166.264 110.954 166.335 111.358 166.478C111.762 166.621 112.125 166.844 112.447 167.149C112.768 167.454 113.022 167.85 113.207 168.337C113.393 168.821 113.486 169.41 113.486 170.102V170.629H107.415V169.516H112.029C112.029 169.125 111.949 168.778 111.79 168.477C111.631 168.172 111.408 167.931 111.119 167.756C110.834 167.58 110.499 167.492 110.115 167.492C109.697 167.492 109.333 167.595 109.021 167.8C108.713 168.003 108.474 168.268 108.305 168.596C108.14 168.921 108.057 169.274 108.057 169.655V170.525C108.057 171.035 108.146 171.469 108.325 171.827C108.507 172.185 108.761 172.459 109.086 172.648C109.411 172.833 109.79 172.926 110.224 172.926C110.506 172.926 110.763 172.886 110.995 172.807C111.227 172.724 111.427 172.601 111.597 172.439C111.766 172.277 111.895 172.076 111.984 171.837L113.391 172.091C113.279 172.505 113.076 172.868 112.785 173.18C112.496 173.488 112.133 173.728 111.696 173.901C111.262 174.07 110.766 174.154 110.209 174.154ZM119.689 174V167.631H117.859C117.425 167.631 117.087 167.732 116.845 167.935C116.603 168.137 116.482 168.402 116.482 168.73C116.482 169.055 116.593 169.317 116.815 169.516C117.041 169.711 117.356 169.809 117.76 169.809H120.122V171.012H117.76C117.197 171.012 116.709 170.919 116.298 170.734C115.891 170.545 115.576 170.278 115.354 169.933C115.135 169.589 115.026 169.181 115.026 168.71C115.026 168.23 115.138 167.815 115.364 167.467C115.592 167.116 115.919 166.844 116.343 166.652C116.771 166.46 117.276 166.364 117.859 166.364H121.086V174H119.689ZM114.678 174L116.83 170.142H118.352L116.199 174H114.678Z" fill="#19171D"/>
</svg>
