<svg width="150" height="177" viewBox="0 0 150 177" fill="none" xmlns="http://www.w3.org/2000/svg">
<rect x="10" y="10" width="130" height="80" rx="4" fill="#F2F4FA"/>
<rect x="0.5" y="0.5" width="149" height="149" rx="9.5" stroke="#19171D" stroke-opacity="0.1"/>
<path d="M28.3627 163.818H29.8841V171.295H29.9785L35.1589 163.818H36.5808V174H35.0446V166.533H34.9501L29.7797 174H28.3627V163.818ZM38.25 171.982H39.7713C39.7912 172.293 39.9321 172.533 40.1939 172.702C40.459 172.871 40.8021 172.956 41.223 172.956C41.6506 172.956 42.0152 172.865 42.3168 172.683C42.6184 172.497 42.7692 172.21 42.7692 171.822C42.7692 171.59 42.7112 171.388 42.5952 171.216C42.4825 171.04 42.3217 170.904 42.1129 170.808C41.9074 170.712 41.6638 170.664 41.3821 170.664H40.1392V169.496H41.3821C41.803 169.496 42.1179 169.4 42.3267 169.207C42.5355 169.015 42.6399 168.775 42.6399 168.487C42.6399 168.175 42.5272 167.925 42.3018 167.736C42.0798 167.544 41.7699 167.447 41.3722 167.447C40.9678 167.447 40.6314 167.539 40.3629 167.721C40.0945 167.9 39.9536 168.132 39.9403 168.417H38.4389C38.4489 167.989 38.5781 167.615 38.8267 167.293C39.0786 166.969 39.4167 166.717 39.8409 166.538C40.2685 166.355 40.754 166.264 41.2976 166.264C41.8643 166.264 42.3549 166.355 42.7692 166.538C43.1835 166.72 43.5033 166.972 43.7287 167.293C43.9574 167.615 44.0717 167.984 44.0717 168.402C44.0717 168.823 43.9458 169.168 43.6939 169.436C43.4453 169.701 43.1205 169.892 42.7195 170.008V170.087C43.0144 170.107 43.2763 170.197 43.505 170.356C43.7337 170.515 43.9126 170.725 44.0419 170.987C44.1712 171.249 44.2358 171.546 44.2358 171.877C44.2358 172.344 44.1065 172.749 43.848 173.09C43.5928 173.432 43.2382 173.695 42.7841 173.881C42.3333 174.063 41.8179 174.154 41.2379 174.154C40.6745 174.154 40.169 174.066 39.7216 173.891C39.2775 173.712 38.9245 173.46 38.6626 173.135C38.4041 172.81 38.2666 172.426 38.25 171.982ZM48.9874 174.154C48.2715 174.154 47.6467 173.99 47.1131 173.662C46.5795 173.334 46.1652 172.875 45.8702 172.285C45.5752 171.695 45.4277 171.005 45.4277 170.217C45.4277 169.424 45.5752 168.732 45.8702 168.138C46.1652 167.545 46.5795 167.085 47.1131 166.756C47.6467 166.428 48.2715 166.264 48.9874 166.264C49.7033 166.264 50.3281 166.428 50.8617 166.756C51.3953 167.085 51.8096 167.545 52.1046 168.138C52.3996 168.732 52.5471 169.424 52.5471 170.217C52.5471 171.005 52.3996 171.695 52.1046 172.285C51.8096 172.875 51.3953 173.334 50.8617 173.662C50.3281 173.99 49.7033 174.154 48.9874 174.154ZM48.9924 172.906C49.4564 172.906 49.8409 172.784 50.1458 172.538C50.4507 172.293 50.6761 171.967 50.8219 171.559C50.9711 171.151 51.0456 170.702 51.0456 170.212C51.0456 169.724 50.9711 169.277 50.8219 168.869C50.6761 168.458 50.4507 168.129 50.1458 167.88C49.8409 167.631 49.4564 167.507 48.9924 167.507C48.525 167.507 48.1373 167.631 47.829 167.88C47.5241 168.129 47.2971 168.458 47.1479 168.869C47.0021 169.277 46.9292 169.724 46.9292 170.212C46.9292 170.702 47.0021 171.151 47.1479 171.559C47.2971 171.967 47.5241 172.293 47.829 172.538C48.1373 172.784 48.525 172.906 48.9924 172.906ZM60.0977 163.52L60.7141 164.46C60.4854 164.668 60.2253 164.817 59.9336 164.907C59.6452 164.993 59.3121 165.048 58.9343 165.071C58.5565 165.091 58.1239 165.109 57.6367 165.126C57.0865 165.142 56.6341 165.262 56.2795 165.484C55.9248 165.702 55.6514 166.027 55.4592 166.458C55.2702 166.886 55.1476 167.423 55.0913 168.069H55.1857C55.4343 167.595 55.779 167.24 56.2198 167.005C56.6639 166.77 57.1628 166.652 57.7163 166.652C58.3327 166.652 58.8813 166.793 59.3619 167.075C59.8424 167.356 60.2203 167.769 60.4954 168.312C60.7738 168.853 60.913 169.514 60.913 170.296C60.913 171.088 60.7672 171.773 60.4755 172.349C60.1871 172.926 59.7795 173.372 59.2525 173.687C58.7288 173.998 58.1107 174.154 57.3981 174.154C56.6855 174.154 56.064 173.993 55.5337 173.672C55.0067 173.347 54.5974 172.866 54.3058 172.23C54.0174 171.594 53.8732 170.808 53.8732 169.874V169.118C53.8732 167.371 54.1848 166.057 54.8079 165.175C55.431 164.294 56.3623 163.841 57.6019 163.818C58.003 163.808 58.3609 163.807 58.6758 163.813C58.9906 163.817 59.2657 163.802 59.5011 163.768C59.7397 163.732 59.9386 163.649 60.0977 163.52ZM57.4031 172.906C57.8174 172.906 58.1737 172.802 58.4719 172.593C58.7736 172.381 59.0056 172.081 59.168 171.693C59.3304 171.305 59.4116 170.848 59.4116 170.321C59.4116 169.804 59.3304 169.365 59.168 169.004C59.0056 168.642 58.7736 168.367 58.4719 168.178C58.1703 167.986 57.8091 167.89 57.3881 167.89C57.0766 167.89 56.7982 167.945 56.5529 168.054C56.3076 168.16 56.0972 168.317 55.9215 168.526C55.7492 168.735 55.6149 168.99 55.5188 169.292C55.426 169.59 55.3763 169.933 55.3697 170.321C55.3697 171.11 55.5503 171.738 55.9116 172.205C56.2762 172.673 56.7733 172.906 57.4031 172.906ZM62.5735 176.864V166.364H64.0252V167.602H64.1495C64.2357 167.442 64.36 167.259 64.5224 167.05C64.6848 166.841 64.9102 166.659 65.1985 166.503C65.4869 166.344 65.868 166.264 66.342 166.264C66.9585 166.264 67.5086 166.42 67.9925 166.732C68.4764 167.043 68.8559 167.492 69.131 168.079C69.4094 168.665 69.5487 169.371 69.5487 170.197C69.5487 171.022 69.4111 171.73 69.136 172.32C68.8609 172.906 68.4831 173.359 68.0025 173.677C67.5219 173.992 66.9734 174.149 66.3569 174.149C65.8929 174.149 65.5134 174.071 65.2184 173.915C64.9267 173.76 64.698 173.577 64.5323 173.369C64.3666 173.16 64.239 172.974 64.1495 172.812H64.06V176.864H62.5735ZM64.0302 170.182C64.0302 170.719 64.1081 171.189 64.2638 171.594C64.4196 171.998 64.645 172.315 64.94 172.543C65.235 172.769 65.5962 172.881 66.0238 172.881C66.4679 172.881 66.8391 172.764 67.1374 172.528C67.4357 172.29 67.6611 171.967 67.8136 171.559C67.9693 171.151 68.0472 170.692 68.0472 170.182C68.0472 169.678 67.971 169.226 67.8185 168.825C67.6694 168.424 67.444 168.107 67.1424 167.875C66.8441 167.643 66.4712 167.527 66.0238 167.527C65.5929 167.527 65.2283 167.638 64.93 167.86C64.6351 168.082 64.4113 168.392 64.2589 168.79C64.1064 169.187 64.0302 169.652 64.0302 170.182ZM73.4364 174.169C72.9525 174.169 72.515 174.08 72.1239 173.901C71.7328 173.718 71.4229 173.455 71.1942 173.11C70.9689 172.765 70.8562 172.343 70.8562 171.842C70.8562 171.411 70.939 171.057 71.1048 170.778C71.2705 170.5 71.4942 170.28 71.7759 170.117C72.0576 169.955 72.3725 169.832 72.7205 169.749C73.0685 169.666 73.4232 169.603 73.7844 169.56C74.2418 169.507 74.613 169.464 74.8981 169.431C75.1831 169.395 75.3903 169.337 75.5195 169.257C75.6488 169.178 75.7134 169.048 75.7134 168.869V168.835C75.7134 168.4 75.5908 168.064 75.3455 167.825C75.1036 167.587 74.7423 167.467 74.2617 167.467C73.7612 167.467 73.3668 167.578 73.0785 167.8C72.7934 168.019 72.5962 168.263 72.4869 168.531L71.0898 168.213C71.2556 167.749 71.4975 167.375 71.8157 167.089C72.1372 166.801 72.5067 166.592 72.9244 166.463C73.342 166.33 73.7811 166.264 74.2418 166.264C74.5468 166.264 74.8699 166.301 75.2113 166.374C75.556 166.443 75.8775 166.572 76.1758 166.761C76.4774 166.95 76.7243 167.22 76.9165 167.572C77.1088 167.92 77.2049 168.372 77.2049 168.929V174H75.7532V172.956H75.6935C75.5974 173.148 75.4532 173.337 75.261 173.523C75.0688 173.708 74.8219 173.862 74.5202 173.985C74.2186 174.108 73.8574 174.169 73.4364 174.169ZM73.7596 172.976C74.1706 172.976 74.5219 172.895 74.8136 172.732C75.1085 172.57 75.3323 172.358 75.4847 172.096C75.6405 171.831 75.7184 171.547 75.7184 171.246V170.261C75.6654 170.314 75.5626 170.364 75.4102 170.411C75.261 170.454 75.0903 170.492 74.8981 170.525C74.7058 170.555 74.5186 170.583 74.3363 170.609C74.154 170.633 74.0015 170.652 73.8789 170.669C73.5906 170.705 73.3271 170.767 73.0884 170.853C72.8531 170.939 72.6642 171.063 72.5217 171.226C72.3825 171.385 72.3129 171.597 72.3129 171.862C72.3129 172.23 72.4487 172.509 72.7205 172.697C72.9923 172.883 73.3387 172.976 73.7596 172.976ZM78.6976 174L81.6557 170.092L78.7324 166.364H80.4625L82.824 169.536H83.356V166.364H84.8425V169.536H85.3596L87.7211 166.364H89.4512L86.5428 170.092L89.486 174H87.7211L85.3397 170.818H84.8425V174H83.356V170.818H82.8588L80.4625 174H78.6976ZM93.9877 174.154C93.2354 174.154 92.5874 173.993 92.0439 173.672C91.5036 173.347 91.086 172.891 90.791 172.305C90.4993 171.715 90.3535 171.024 90.3535 170.232C90.3535 169.449 90.4993 168.76 90.791 168.163C91.086 167.567 91.497 167.101 92.024 166.766C92.5543 166.432 93.1741 166.264 93.8833 166.264C94.3142 166.264 94.7318 166.335 95.1362 166.478C95.5405 166.621 95.9035 166.844 96.225 167.149C96.5465 167.454 96.8 167.85 96.9856 168.337C97.1712 168.821 97.264 169.41 97.264 170.102V170.629H91.1937V169.516H95.8074C95.8074 169.125 95.7278 168.778 95.5687 168.477C95.4096 168.172 95.1859 167.931 94.8975 167.756C94.6125 167.58 94.2778 167.492 93.8933 167.492C93.4757 167.492 93.1111 167.595 92.7995 167.8C92.4913 168.003 92.2527 168.268 92.0836 168.596C91.9179 168.921 91.835 169.274 91.835 169.655V170.525C91.835 171.035 91.9245 171.469 92.1035 171.827C92.2858 172.185 92.5394 172.459 92.8642 172.648C93.189 172.833 93.5685 172.926 94.0027 172.926C94.2844 172.926 94.5413 172.886 94.7733 172.807C95.0053 172.724 95.2058 172.601 95.3748 172.439C95.5439 172.277 95.6731 172.076 95.7626 171.837L97.1696 172.091C97.0569 172.505 96.8547 172.868 96.563 173.18C96.2747 173.488 95.9118 173.728 95.4743 173.901C95.0401 174.07 94.5446 174.154 93.9877 174.154ZM104.089 169.54V170.828H99.9524V169.54H104.089ZM100.37 166.364V174H98.9134V166.364H100.37ZM105.128 166.364V174H103.676V166.364H105.128ZM108.573 171.917L111.939 166.364H113.54V174H112.083V168.442L108.732 174H107.116V166.364H108.573V171.917ZM118.83 174.154C118.077 174.154 117.429 173.993 116.886 173.672C116.345 173.347 115.928 172.891 115.633 172.305C115.341 171.715 115.195 171.024 115.195 170.232C115.195 169.449 115.341 168.76 115.633 168.163C115.928 167.567 116.339 167.101 116.866 166.766C117.396 166.432 118.016 166.264 118.725 166.264C119.156 166.264 119.574 166.335 119.978 166.478C120.382 166.621 120.745 166.844 121.067 167.149C121.388 167.454 121.642 167.85 121.827 168.337C122.013 168.821 122.106 169.41 122.106 170.102V170.629H116.036V169.516H120.649C120.649 169.125 120.57 168.778 120.411 168.477C120.251 168.172 120.028 167.931 119.739 167.756C119.454 167.58 119.12 167.492 118.735 167.492C118.317 167.492 117.953 167.595 117.641 167.8C117.333 168.003 117.094 168.268 116.925 168.596C116.76 168.921 116.677 169.274 116.677 169.655V170.525C116.677 171.035 116.766 171.469 116.945 171.827C117.128 172.185 117.381 172.459 117.706 172.648C118.031 172.833 118.41 172.926 118.844 172.926C119.126 172.926 119.383 172.886 119.615 172.807C119.847 172.724 120.048 172.601 120.217 172.439C120.386 172.277 120.515 172.076 120.604 171.837L122.011 172.091C121.899 172.505 121.696 172.868 121.405 173.18C121.116 173.488 120.754 173.728 120.316 173.901C119.882 174.07 119.386 174.154 118.83 174.154Z" fill="#19171D"/>
</svg>
