<svg width="150" height="177" viewBox="0 0 150 177" fill="none" xmlns="http://www.w3.org/2000/svg">
<rect x="10" y="10" width="130" height="40" rx="4" fill="#F2F4FA"/>
<rect x="0.5" y="0.5" width="149" height="149" rx="9.5" stroke="#19171D" stroke-opacity="0.1"/>
<path d="M54.1622 167.129H52.6111C52.5514 166.798 52.4404 166.506 52.278 166.254C52.1156 166.002 51.9167 165.789 51.6814 165.613C51.4461 165.437 51.1826 165.305 50.8909 165.215C50.6025 165.126 50.296 165.081 49.9711 165.081C49.3845 165.081 48.8592 165.228 48.3952 165.523C47.9345 165.818 47.5699 166.251 47.3014 166.821C47.0363 167.391 46.9037 168.087 46.9037 168.909C46.9037 169.738 47.0363 170.437 47.3014 171.007C47.5699 171.577 47.9361 172.008 48.4001 172.3C48.8641 172.591 49.3862 172.737 49.9662 172.737C50.2877 172.737 50.5926 172.694 50.8809 172.608C51.1726 172.518 51.4361 172.388 51.6714 172.215C51.9068 172.043 52.1056 171.832 52.268 171.584C52.4337 171.332 52.5481 171.044 52.6111 170.719L54.1622 170.724C54.0793 171.224 53.9186 171.685 53.68 172.106C53.4446 172.523 53.1414 172.885 52.7702 173.19C52.4023 173.491 51.9813 173.725 51.5074 173.891C51.0334 174.056 50.5164 174.139 49.9562 174.139C49.0746 174.139 48.2891 173.93 47.5997 173.513C46.9103 173.092 46.3667 172.49 45.969 171.708C45.5746 170.926 45.3774 169.993 45.3774 168.909C45.3774 167.822 45.5763 166.889 45.974 166.11C46.3717 165.328 46.9153 164.728 47.6047 164.31C48.2941 163.889 49.0779 163.679 49.9562 163.679C50.4965 163.679 51.0003 163.757 51.4676 163.913C51.9382 164.065 52.3608 164.29 52.7354 164.589C53.1099 164.884 53.4198 165.245 53.665 165.673C53.9103 166.097 54.076 166.582 54.1622 167.129ZM55.2796 174L55.2746 172.712H55.548C55.7602 172.712 55.9375 172.668 56.08 172.578C56.2258 172.485 56.3451 172.33 56.4379 172.111C56.5307 171.892 56.602 171.59 56.6517 171.206C56.7014 170.818 56.7379 170.331 56.7611 169.744L56.8953 166.364H62.2249V174H60.7682V167.646H58.2725L58.1531 170.241C58.1233 170.871 58.0587 171.421 57.9593 171.892C57.8631 172.363 57.7223 172.755 57.5367 173.07C57.3511 173.382 57.1124 173.616 56.8208 173.771C56.5291 173.924 56.1744 174 55.7568 174H55.2796ZM66.4296 174.169C65.9457 174.169 65.5082 174.08 65.1171 173.901C64.726 173.718 64.4161 173.455 64.1874 173.11C63.962 172.765 63.8493 172.343 63.8493 171.842C63.8493 171.411 63.9322 171.057 64.0979 170.778C64.2636 170.5 64.4874 170.28 64.7691 170.117C65.0508 169.955 65.3657 169.832 65.7137 169.749C66.0617 169.666 66.4163 169.603 66.7776 169.56C67.235 169.507 67.6062 169.464 67.8912 169.431C68.1763 169.395 68.3834 169.337 68.5127 169.257C68.642 169.178 68.7066 169.048 68.7066 168.869V168.835C68.7066 168.4 68.584 168.064 68.3387 167.825C68.0967 167.587 67.7355 167.467 67.2549 167.467C66.7544 167.467 66.36 167.578 66.0716 167.8C65.7866 168.019 65.5894 168.263 65.48 168.531L64.083 168.213C64.2487 167.749 64.4907 167.375 64.8089 167.089C65.1304 166.801 65.4999 166.592 65.9175 166.463C66.3351 166.33 66.7743 166.264 67.235 166.264C67.5399 166.264 67.8631 166.301 68.2045 166.374C68.5492 166.443 68.8706 166.572 69.1689 166.761C69.4706 166.95 69.7175 167.22 69.9097 167.572C70.1019 167.92 70.1981 168.372 70.1981 168.929V174H68.7464V172.956H68.6867C68.5906 173.148 68.4464 173.337 68.2542 173.523C68.0619 173.708 67.815 173.862 67.5134 173.985C67.2118 174.108 66.8505 174.169 66.4296 174.169ZM66.7528 172.976C67.1637 172.976 67.5151 172.895 67.8067 172.732C68.1017 172.57 68.3254 172.358 68.4779 172.096C68.6337 171.831 68.7116 171.547 68.7116 171.246V170.261C68.6585 170.314 68.5558 170.364 68.4033 170.411C68.2542 170.454 68.0835 170.492 67.8912 170.525C67.699 170.555 67.5117 170.583 67.3295 170.609C67.1472 170.633 66.9947 170.652 66.8721 170.669C66.5837 170.705 66.3202 170.767 66.0816 170.853C65.8463 170.939 65.6573 171.063 65.5148 171.226C65.3756 171.385 65.306 171.597 65.306 171.862C65.306 172.23 65.4419 172.509 65.7137 172.697C65.9855 172.883 66.3318 172.976 66.7528 172.976ZM73.6347 171.917L77.0004 166.364H78.6013V174H77.1446V168.442L73.7938 174H72.178V166.364H73.6347V171.917ZM76.3641 163.778H77.5871C77.5871 164.339 77.3882 164.794 76.9905 165.146C76.5961 165.494 76.0625 165.668 75.3896 165.668C74.7201 165.668 74.1882 165.494 73.7938 165.146C73.3994 164.794 73.2021 164.339 73.2021 163.778H74.4202C74.4202 164.027 74.4931 164.247 74.6389 164.44C74.7848 164.629 75.035 164.723 75.3896 164.723C75.7377 164.723 75.9862 164.629 76.1354 164.44C76.2878 164.251 76.3641 164.03 76.3641 163.778ZM79.8541 176.202V172.712H80.4756C80.6347 172.567 80.7689 172.393 80.8783 172.19C80.991 171.988 81.0854 171.748 81.1617 171.469C81.2412 171.191 81.3075 170.866 81.3605 170.495C81.4136 170.121 81.46 169.693 81.4997 169.212L81.7384 166.364H86.9287V172.712H88.102V176.202H86.6503V174H81.3257V176.202H79.8541ZM82.0665 172.712H85.477V167.636H83.0708L82.9117 169.212C82.8354 170.014 82.7393 170.71 82.6233 171.3C82.5073 171.887 82.3217 172.358 82.0665 172.712ZM92.8461 174.154C92.0938 174.154 91.4458 173.993 90.9023 173.672C90.362 173.347 89.9444 172.891 89.6494 172.305C89.3577 171.715 89.2119 171.024 89.2119 170.232C89.2119 169.449 89.3577 168.76 89.6494 168.163C89.9444 167.567 90.3554 167.101 90.8824 166.766C91.4127 166.432 92.0325 166.264 92.7417 166.264C93.1726 166.264 93.5902 166.335 93.9946 166.478C94.3989 166.621 94.7619 166.844 95.0834 167.149C95.4049 167.454 95.6584 167.85 95.844 168.337C96.0296 168.821 96.1224 169.41 96.1224 170.102V170.629H90.0521V169.516H94.6657C94.6657 169.125 94.5862 168.778 94.4271 168.477C94.268 168.172 94.0443 167.931 93.7559 167.756C93.4709 167.58 93.1362 167.492 92.7517 167.492C92.3341 167.492 91.9695 167.595 91.6579 167.8C91.3497 168.003 91.1111 168.268 90.942 168.596C90.7763 168.921 90.6934 169.274 90.6934 169.655V170.525C90.6934 171.035 90.7829 171.469 90.9619 171.827C91.1442 172.185 91.3978 172.459 91.7226 172.648C92.0474 172.833 92.4269 172.926 92.8611 172.926C93.1428 172.926 93.3997 172.886 93.6317 172.807C93.8637 172.724 94.0642 172.601 94.2332 172.439C94.4023 172.277 94.5315 172.076 94.621 171.837L96.028 172.091C95.9153 172.505 95.7131 172.868 95.4214 173.18C95.1331 173.488 94.7702 173.728 94.3327 173.901C93.8985 174.07 93.403 174.154 92.8461 174.154ZM97.7718 176.864V166.364H99.2235V167.602H99.3477C99.4339 167.442 99.5582 167.259 99.7206 167.05C99.883 166.841 100.108 166.659 100.397 166.503C100.685 166.344 101.066 166.264 101.54 166.264C102.157 166.264 102.707 166.42 103.191 166.732C103.675 167.043 104.054 167.492 104.329 168.079C104.608 168.665 104.747 169.371 104.747 170.197C104.747 171.022 104.609 171.73 104.334 172.32C104.059 172.906 103.681 173.359 103.201 173.677C102.72 173.992 102.172 174.149 101.555 174.149C101.091 174.149 100.712 174.071 100.417 173.915C100.125 173.76 99.8963 173.577 99.7306 173.369C99.5648 173.16 99.4372 172.974 99.3477 172.812H99.2583V176.864H97.7718ZM99.2284 170.182C99.2284 170.719 99.3063 171.189 99.4621 171.594C99.6179 171.998 99.8432 172.315 100.138 172.543C100.433 172.769 100.794 172.881 101.222 172.881C101.666 172.881 102.037 172.764 102.336 172.528C102.634 172.29 102.859 171.967 103.012 171.559C103.168 171.151 103.245 170.692 103.245 170.182C103.245 169.678 103.169 169.226 103.017 168.825C102.868 168.424 102.642 168.107 102.341 167.875C102.042 167.643 101.669 167.527 101.222 167.527C100.791 167.527 100.427 167.638 100.128 167.86C99.8333 168.082 99.6096 168.392 99.4571 168.79C99.3047 169.187 99.2284 169.652 99.2284 170.182Z" fill="#19171D"/>
</svg>
