<svg width="150" height="177" viewBox="0 0 150 177" fill="none" xmlns="http://www.w3.org/2000/svg">
<rect x="10" y="10" width="85" height="15" rx="4" fill="#F2F4FA"/>
<rect x="10" y="30" width="130" height="15" rx="4" fill="#F2F4FA"/>
<rect x="0.5" y="0.5" width="149" height="149" rx="9.5" stroke="#19171D" stroke-opacity="0.1"/>
<path d="M20.177 165.141V163.818H28.057V165.141H24.8801V174H23.3489V165.141H20.177ZM31.8627 174.154C31.1104 174.154 30.4624 173.993 29.9189 173.672C29.3786 173.347 28.961 172.891 28.666 172.305C28.3743 171.715 28.2285 171.024 28.2285 170.232C28.2285 169.449 28.3743 168.76 28.666 168.163C28.961 167.567 29.372 167.101 29.899 166.766C30.4293 166.432 31.0491 166.264 31.7583 166.264C32.1892 166.264 32.6068 166.335 33.0112 166.478C33.4155 166.621 33.7785 166.844 34.1 167.149C34.4215 167.454 34.675 167.85 34.8606 168.337C35.0462 168.821 35.139 169.41 35.139 170.102V170.629H29.0687V169.516H33.6824C33.6824 169.125 33.6028 168.778 33.4437 168.477C33.2846 168.172 33.0609 167.931 32.7725 167.756C32.4875 167.58 32.1528 167.492 31.7683 167.492C31.3507 167.492 30.9861 167.595 30.6745 167.8C30.3663 168.003 30.1277 168.268 29.9586 168.596C29.7929 168.921 29.71 169.274 29.71 169.655V170.525C29.71 171.035 29.7995 171.469 29.9785 171.827C30.1608 172.185 30.4144 172.459 30.7392 172.648C31.064 172.833 31.4435 172.926 31.8777 172.926C32.1594 172.926 32.4163 172.886 32.6483 172.807C32.8803 172.724 33.0808 172.601 33.2498 172.439C33.4189 172.277 33.5481 172.076 33.6376 171.837L35.0446 172.091C34.9319 172.505 34.7297 172.868 34.438 173.18C34.1497 173.488 33.7868 173.728 33.3493 173.901C32.9151 174.07 32.4196 174.154 31.8627 174.154ZM36.7884 174V166.364H38.2749V169.565H38.9908L41.5114 166.364H43.3509L40.3928 170.077L43.3857 174H41.5412L39.2393 170.947H38.2749V174H36.7884ZM47.4425 174.154C46.7034 174.154 46.067 173.987 45.5334 173.652C45.0031 173.314 44.5954 172.848 44.3104 172.255C44.0253 171.662 43.8828 170.982 43.8828 170.217C43.8828 169.441 44.0286 168.757 44.3203 168.163C44.612 167.567 45.023 167.101 45.5533 166.766C46.0836 166.432 46.7083 166.264 47.4276 166.264C48.0076 166.264 48.5246 166.372 48.9787 166.587C49.4328 166.799 49.799 167.098 50.0774 167.482C50.3591 167.867 50.5265 168.316 50.5795 168.83H49.1328C49.0533 168.472 48.871 168.163 48.5859 167.905C48.3042 167.646 47.9264 167.517 47.4524 167.517C47.0381 167.517 46.6752 167.626 46.3636 167.845C46.0554 168.061 45.8151 168.369 45.6428 168.77C45.4704 169.168 45.3842 169.638 45.3842 170.182C45.3842 170.739 45.4688 171.219 45.6378 171.624C45.8068 172.028 46.0455 172.341 46.3537 172.563C46.6652 172.785 47.0315 172.896 47.4524 172.896C47.7341 172.896 47.9893 172.845 48.218 172.742C48.45 172.636 48.6439 172.485 48.7997 172.29C48.9588 172.094 49.0698 171.859 49.1328 171.584H50.5795C50.5265 172.078 50.3658 172.518 50.0973 172.906C49.8288 173.294 49.4692 173.599 49.0185 173.821C48.571 174.043 48.0457 174.154 47.4425 174.154ZM51.5913 167.646V166.364H58.0344V167.646H55.5437V174H54.092V167.646H51.5913ZM62.4679 174.154C61.752 174.154 61.1272 173.99 60.5936 173.662C60.06 173.334 59.6457 172.875 59.3507 172.285C59.0557 171.695 58.9082 171.005 58.9082 170.217C58.9082 169.424 59.0557 168.732 59.3507 168.138C59.6457 167.545 60.06 167.085 60.5936 166.756C61.1272 166.428 61.752 166.264 62.4679 166.264C63.1838 166.264 63.8085 166.428 64.3422 166.756C64.8758 167.085 65.2901 167.545 65.585 168.138C65.88 168.732 66.0275 169.424 66.0275 170.217C66.0275 171.005 65.88 171.695 65.585 172.285C65.2901 172.875 64.8758 173.334 64.3422 173.662C63.8085 173.99 63.1838 174.154 62.4679 174.154ZM62.4728 172.906C62.9368 172.906 63.3213 172.784 63.6262 172.538C63.9312 172.293 64.1565 171.967 64.3024 171.559C64.4515 171.151 64.5261 170.702 64.5261 170.212C64.5261 169.724 64.4515 169.277 64.3024 168.869C64.1565 168.458 63.9312 168.129 63.6262 167.88C63.3213 167.631 62.9368 167.507 62.4728 167.507C62.0055 167.507 61.6177 167.631 61.3095 167.88C61.0046 168.129 60.7775 168.458 60.6284 168.869C60.4825 169.277 60.4096 169.724 60.4096 170.212C60.4096 170.702 60.4825 171.151 60.6284 171.559C60.7775 171.967 61.0046 172.293 61.3095 172.538C61.6177 172.784 62.0055 172.906 62.4728 172.906ZM67.6868 174V166.364H70.8537C71.7154 166.364 72.3982 166.548 72.902 166.915C73.4058 167.28 73.6577 167.776 73.6577 168.402C73.6577 168.849 73.5152 169.204 73.2301 169.466C72.9451 169.728 72.5672 169.903 72.0966 169.993C72.438 170.033 72.7512 170.135 73.0362 170.301C73.3213 170.464 73.55 170.682 73.7223 170.957C73.898 171.232 73.9858 171.561 73.9858 171.942C73.9858 172.346 73.8814 172.704 73.6726 173.016C73.4638 173.324 73.1605 173.566 72.7628 173.741C72.3684 173.914 71.8928 174 71.3359 174H67.6868ZM69.0838 172.757H71.3359C71.7038 172.757 71.9922 172.669 72.201 172.494C72.4098 172.318 72.5142 172.079 72.5142 171.778C72.5142 171.423 72.4098 171.145 72.201 170.942C71.9922 170.737 71.7038 170.634 71.3359 170.634H69.0838V172.757ZM69.0838 169.545H70.8686C71.147 169.545 71.3857 169.506 71.5845 169.426C71.7867 169.347 71.9408 169.234 72.0469 169.088C72.1562 168.939 72.2109 168.763 72.2109 168.561C72.2109 168.266 72.09 168.036 71.848 167.87C71.6061 167.704 71.2746 167.621 70.8537 167.621H69.0838V169.545ZM76.7351 168.989H78.9524C79.8871 168.989 80.6063 169.221 81.1101 169.685C81.6139 170.149 81.8658 170.747 81.8658 171.479C81.8658 171.957 81.7531 172.386 81.5277 172.767C81.3023 173.148 80.9725 173.45 80.5384 173.672C80.1042 173.891 79.5755 174 78.9524 174H75.6165V166.364H77.0732V172.717H78.9524C79.38 172.717 79.7313 172.606 80.0064 172.384C80.2815 172.159 80.419 171.872 80.419 171.524C80.419 171.156 80.2815 170.856 80.0064 170.624C79.7313 170.389 79.38 170.271 78.9524 170.271H76.7351V168.989ZM82.9496 174V166.364H84.4361V174H82.9496ZM87.8876 171.917L91.2534 166.364H92.8542V174H91.3975V168.442L88.0467 174H86.4309V166.364H87.8876V171.917ZM90.617 163.778H91.84C91.84 164.339 91.6412 164.794 91.2434 165.146C90.849 165.494 90.3154 165.668 89.6426 165.668C88.9731 165.668 88.4411 165.494 88.0467 165.146C87.6523 164.794 87.4551 164.339 87.4551 163.778H88.6731C88.6731 164.027 88.746 164.247 88.8919 164.44C89.0377 164.629 89.2879 164.723 89.6426 164.723C89.9906 164.723 90.2392 164.629 90.3883 164.44C90.5408 164.251 90.617 164.03 90.617 163.778ZM104.449 163.52L105.066 164.46C104.837 164.668 104.577 164.817 104.285 164.907C103.997 164.993 103.664 165.048 103.286 165.071C102.908 165.091 102.475 165.109 101.988 165.126C101.438 165.142 100.986 165.262 100.631 165.484C100.276 165.702 100.003 166.027 99.8107 166.458C99.6218 166.886 99.4992 167.423 99.4428 168.069H99.5373C99.7859 167.595 100.131 167.24 100.571 167.005C101.016 166.77 101.514 166.652 102.068 166.652C102.684 166.652 103.233 166.793 103.713 167.075C104.194 167.356 104.572 167.769 104.847 168.312C105.125 168.853 105.265 169.514 105.265 170.296C105.265 171.088 105.119 171.773 104.827 172.349C104.539 172.926 104.131 173.372 103.604 173.687C103.08 173.998 102.462 174.154 101.75 174.154C101.037 174.154 100.416 173.993 99.8853 173.672C99.3583 173.347 98.949 172.866 98.6573 172.23C98.369 171.594 98.2248 170.808 98.2248 169.874V169.118C98.2248 167.371 98.5363 166.057 99.1594 165.175C99.7826 164.294 100.714 163.841 101.953 163.818C102.355 163.808 102.712 163.807 103.027 163.813C103.342 163.817 103.617 163.802 103.853 163.768C104.091 163.732 104.29 163.649 104.449 163.52ZM101.755 172.906C102.169 172.906 102.525 172.802 102.824 172.593C103.125 172.381 103.357 172.081 103.52 171.693C103.682 171.305 103.763 170.848 103.763 170.321C103.763 169.804 103.682 169.365 103.52 169.004C103.357 168.642 103.125 168.367 102.824 168.178C102.522 167.986 102.161 167.89 101.74 167.89C101.428 167.89 101.15 167.945 100.904 168.054C100.659 168.16 100.449 168.317 100.273 168.526C100.101 168.735 99.9665 168.99 99.8704 169.292C99.7776 169.59 99.7279 169.933 99.7212 170.321C99.7212 171.11 99.9019 171.738 100.263 172.205C100.628 172.673 101.125 172.906 101.755 172.906ZM106.324 174L106.319 172.712H106.592C106.804 172.712 106.981 172.668 107.124 172.578C107.27 172.485 107.389 172.33 107.482 172.111C107.575 171.892 107.646 171.59 107.696 171.206C107.745 170.818 107.782 170.331 107.805 169.744L107.939 166.364H113.269V174H111.812V167.646H109.316L109.197 170.241C109.167 170.871 109.103 171.421 109.003 171.892C108.907 172.363 108.766 172.755 108.581 173.07C108.395 173.382 108.156 173.616 107.865 173.771C107.573 173.924 107.218 174 106.801 174H106.324ZM118.468 174.154C117.752 174.154 117.127 173.99 116.594 173.662C116.06 173.334 115.646 172.875 115.351 172.285C115.056 171.695 114.908 171.005 114.908 170.217C114.908 169.424 115.056 168.732 115.351 168.138C115.646 167.545 116.06 167.085 116.594 166.756C117.127 166.428 117.752 166.264 118.468 166.264C119.184 166.264 119.809 166.428 120.342 166.756C120.876 167.085 121.29 167.545 121.585 168.138C121.88 168.732 122.028 169.424 122.028 170.217C122.028 171.005 121.88 171.695 121.585 172.285C121.29 172.875 120.876 173.334 120.342 173.662C119.809 173.99 119.184 174.154 118.468 174.154ZM118.473 172.906C118.937 172.906 119.321 172.784 119.626 172.538C119.931 172.293 120.157 171.967 120.302 171.559C120.452 171.151 120.526 170.702 120.526 170.212C120.526 169.724 120.452 169.277 120.302 168.869C120.157 168.458 119.931 168.129 119.626 167.88C119.321 167.631 118.937 167.507 118.473 167.507C118.006 167.507 117.618 167.631 117.309 167.88C117.005 168.129 116.778 168.458 116.628 168.869C116.483 169.277 116.41 169.724 116.41 170.212C116.41 170.702 116.483 171.151 116.628 171.559C116.778 171.967 117.005 172.293 117.309 172.538C117.618 172.784 118.006 172.906 118.473 172.906ZM123.687 174V166.364H125.173V169.565H125.889L128.41 166.364H130.249L127.291 170.077L130.284 174H128.44L126.138 170.947H125.173V174H123.687Z" fill="#19171D"/>
</svg>
